<svg width="864" height="241" viewBox="0 0 864 241" fill="none" xmlns="http://www.w3.org/2000/svg">
<path d="M68.61 186.448C59.93 199.708 33.94 225.028 50.57 239.728C35.8 239.858 21.06 240.388 6.34998 239.488C-9.70002 231.268 16.8 221.978 23.87 218.958C18.34 211.458 -4.04001 171.648 8.54999 166.558C13.54 165.738 8.79 158.038 5.59 157.408C1.65 156.158 0.44 153.198 0 149.498C0.88 121.668 21.29 97.7884 32.75 73.2584C40.18 57.0784 39.89 36.6084 53.4 23.7784C39.64 18.6884 47.07 6.67842 55.69 0.628421C62.52 -3.02158 67.21 10.2184 69.98 14.8884C81.75 11.7184 93.44 11.7084 105.15 14.8684C108.14 9.76844 112.5 -3.42156 120.08 0.958438C128.4 7.23844 135.3 18.6984 121.88 23.7184C134.07 35.4184 134.89 53.5084 140.7 68.5984C150.96 93.1784 167.94 114.898 174.76 140.938C177.81 161.828 168.12 152.058 164.55 164.058C164.29 168.628 172.02 165.248 170.3 172.708C168.39 189.738 160.83 205.198 151.18 219.178C158.27 221.498 185.2 231.948 168.69 239.548C154.25 240.388 139.75 239.608 124.99 239.868C140.57 222.988 116.08 200.708 106.65 186.518C124.3 185.408 128.71 173.518 126.35 157.728C126.54 153.808 130.73 151.148 131.73 147.308C138.63 130.408 139.24 111.998 140.7 94.0384C140.65 70.1384 99.89 112.918 94.36 119.038C91.93 122.158 88.99 128.558 84.48 124.528C81.68 119.148 77.45 114.928 73.17 110.788C64.15 102.048 54.33 94.3484 43.68 87.6584C25.29 77.1984 39.41 133.418 41.17 140.658C42.74 145.988 44.16 151.428 48.6 155.378C49.05 155.778 48.79 157.048 48.77 157.908C46.75 173.098 50.85 185.818 68.61 186.448Z" fill="#353535"/>
<path d="M330.08 84.4784C337.7 94.2984 335.8 111.378 324.7 118.048C310.86 129.068 262.91 123.508 245.04 124.778V30.5884C262.28 31.8684 307.46 26.3384 320.66 37.2484C334.76 46.3484 332.41 68.8484 317.43 75.6684C322.82 77.5484 327.03 80.4884 330.08 84.4784ZM271.41 49.8284V67.9984C279.82 67.2284 304.26 71.7284 303.17 58.8484C304.26 46.1284 279.72 50.5884 271.41 49.8284ZM307.75 95.9784C308.84 81.7584 280.31 87.5684 271.42 86.4284V105.538C280.34 104.388 308.81 110.208 307.75 95.9784Z" fill="#353535"/>
<path d="M421.45 94.7684H368.43C372.5 109.338 393.48 109.518 403.15 100.148L416.61 114.148C385.41 144.558 323.77 114.218 347.92 68.8684C369.45 34.7684 429.02 51.0584 421.45 94.7684ZM373.08 72.1584C370.43 74.3984 368.75 77.4484 368.03 81.3084H397.9C396.56 69.6384 381.49 65.0184 373.08 72.1584Z" fill="#353535"/>
<path d="M490.48 58.9084C505.38 69.3184 498.62 108.688 500.03 124.778H476.21V115.358C469.29 130.208 439.06 129.188 430.66 115.018C425.22 106.518 426.74 93.0984 435.44 87.4284C442.53 81.0784 462.93 81.5084 474.46 81.7084C474.16 65.6984 448.49 68.6484 439.2 76.4584L430.59 59.0984C446.36 48.7584 476.81 46.8584 490.48 58.9084ZM469.63 107.688C474.15 105.238 474.96 99.7884 474.47 95.0384H463.44C441.64 95.7784 455.47 117.138 469.63 107.688Z" fill="#353535"/>
<path d="M550.7 53.1184C554.87 51.4584 559.65 50.6284 565.03 50.6284V73.6384C532.14 68.0784 543.76 105.508 541.75 124.768H516.18V51.8484H540.54V60.5984C543.14 57.2684 546.53 54.7784 550.7 53.1184Z" fill="#353535"/>
<path d="M590.46 121.148C563.83 109.108 563.67 67.3584 590.46 55.4184C608.63 46.2184 638.35 49.6384 646.3 70.6884L626.52 80.7784C619.28 64.1284 594.81 70.2584 596.11 88.1784C594.73 106.208 619.17 112.638 626.52 95.8484L646.3 105.938C638.35 126.978 608.61 130.468 590.46 121.148Z" fill="#353535"/>
<path d="M714.8 58.9084C729.7 69.3184 722.94 108.688 724.35 124.778H700.54V115.358C693.62 130.208 663.39 129.188 654.99 115.018C649.55 106.518 651.07 93.0984 659.77 87.4284C666.86 81.0784 687.26 81.5084 698.79 81.7084C698.49 65.6984 672.82 68.6484 663.53 76.4584L654.92 59.0984C670.68 48.7584 701.13 46.8584 714.8 58.9084ZM693.94 107.688C698.46 105.238 699.27 99.7884 698.78 95.0384H687.75C665.96 95.7784 679.79 117.138 693.94 107.688Z" fill="#353535"/>
<path d="M790.83 121.818C779.82 128.368 759.58 127.208 751.13 118.988C740.31 111.018 744.07 85.9884 743.46 73.6384H732.83V54.5284H743.46V35.5584H769.03V54.5284H785.72V73.6384H769.03C770.27 84.5384 762.75 115.368 784.5 103.918L790.83 121.818Z" fill="#353535"/>
<path d="M809.13 123.908C803.21 122.518 798.45 120.698 794.87 118.458L802.54 100.968C811.36 106.418 827.09 109.748 836.79 106.418C840.37 104.798 840.4 100.368 836.25 99.2884C825.35 96.0384 808.93 97.4684 800.79 88.0484C795 82.1384 794.83 69.2084 800.52 62.4184C813.78 46.6684 843.27 48.3485 860.67 56.8385L853 74.1984C844.84 69.5184 831.73 66.9484 823.13 70.2284C819.31 71.9184 819.31 76.3085 823.4 77.4985C829.01 79.2585 843.13 80.7285 848.56 82.6785C862.08 85.7185 867.93 103.248 859.06 114.368C848.06 127.728 825.57 127.528 809.13 123.908Z" fill="#353535"/>
<path d="M245.04 163.328C259.25 162.938 281.15 161.298 281.07 181.248C281.15 201.178 259.23 199.558 245.04 199.158V163.328ZM260.91 192.348C276.39 193.468 276.39 169.018 260.91 170.138H253.34V192.348H260.91Z" fill="#353535"/>
<path d="M313.57 187.638H292.74C294.06 194.048 303.44 194.778 307.53 190.508L311.78 195.118C300.65 206.958 277.33 194.088 286.62 178.098C294.15 165.118 316.66 171.878 313.57 187.638ZM294.89 178.788C293.66 179.808 292.91 181.208 292.64 182.988H306.2C305.69 177.628 298.71 175.538 294.89 178.788Z" fill="#353535"/>
<path d="M345.87 171.618L334.25 199.158H326.01L314.44 171.618H322.68L330.31 190.348L338.19 171.618H345.87Z" fill="#353535"/>
<path d="M375.2 187.638H354.37C355.69 194.048 365.07 194.778 369.16 190.508L373.41 195.118C362.28 206.958 338.96 194.088 348.25 178.098C355.77 165.118 378.28 171.878 375.2 187.638ZM356.52 178.788C355.29 179.808 354.54 181.208 354.27 182.988H367.83C367.32 177.628 360.33 175.538 356.52 178.788Z" fill="#353535"/>
<path d="M380.68 161.178H388.66V199.158H380.68V161.178Z" fill="#353535"/>
<path d="M401.38 197.748C384.01 187.588 400.3 163.808 416.97 173.028C434.27 183.208 418.06 206.968 401.38 197.748ZM414.23 190.938C420.53 184.328 411.3 172.778 404.12 179.828C397.75 186.418 407.09 197.998 414.23 190.938Z" fill="#353535"/>
<path d="M452.87 172.978C469.38 182.678 452.7 209.448 437.59 196.238V209.088H429.61V171.618H437.24V174.788C440.45 170.558 448.27 170.248 452.87 172.978ZM449.54 190.938C455.84 184.348 446.62 172.768 439.46 179.828C433.16 186.418 442.38 198.008 449.54 190.938Z" fill="#353535"/>
<path d="M491.74 187.638H470.91C472.23 194.048 481.61 194.778 485.7 190.508L489.95 195.118C478.82 206.958 455.5 194.088 464.79 178.098C472.32 165.118 494.83 171.878 491.74 187.638ZM473.06 178.788C471.83 179.808 471.08 181.208 470.81 182.988H484.37C483.86 177.628 476.88 175.538 473.06 178.788Z" fill="#353535"/>
<path d="M508.71 172.228C510.33 171.548 512.2 171.208 514.31 171.208V178.578C502.03 176.358 505.71 192.008 505.2 199.158H497.22V171.618H504.85V175.248C505.8 173.918 507.09 172.918 508.71 172.228Z" fill="#353535"/>
<path d="M541.75 170.078H530.28V163.318H561.5V170.078H550.04V199.148H541.75V170.078Z" fill="#353535"/>
<path d="M589.4 187.638H568.57C569.89 194.048 579.27 194.778 583.36 190.508L587.61 195.118C576.48 206.958 553.16 194.088 562.45 178.098C569.98 165.118 592.48 171.878 589.4 187.638ZM570.72 178.788C569.49 179.808 568.74 181.208 568.47 182.988H582.03C581.52 177.628 574.54 175.538 570.72 178.788Z" fill="#353535"/>
<path d="M615.05 174.258C620.51 178.178 617.92 193.228 618.48 199.158H611.01V195.728C607.26 202.328 591.87 200.328 592.33 191.228C592.29 182.128 603.47 182.878 610.5 182.988C610.61 175.638 600.26 176.828 596.22 180.118L593.35 174.538C599 170.558 610 169.718 615.05 174.258ZM608.24 193.248C610.3 192.288 610.74 189.688 610.49 187.648C594.27 185.678 599.48 197.518 608.24 193.248Z" fill="#353535"/>
<path d="M669.17 174.258C674.06 178.268 671.7 193.358 672.22 199.158H664.24C663.27 194.218 667.53 177.828 659.02 178.118C649.59 177.768 653.83 193.668 652.93 199.158H644.94C644.04 194.338 648.09 177.488 639.72 178.118C630.36 177.808 634.58 193.698 633.68 199.158H625.7V171.618H633.33V174.788C637.72 169.778 647.36 169.908 651.04 175.708C654.97 170.388 664.68 169.618 669.17 174.258Z" fill="#353535"/>
</svg>
